<?xml version="1.0" encoding="UTF-8"?><svg xmlns="http://www.w3.org/2000/svg" xmlns:xlink="http://www.w3.org/1999/xlink" fill-opacity="1" color-rendering="auto" color-interpolation="auto" text-rendering="auto" stroke="black" stroke-linecap="square" width="350" stroke-miterlimit="10" shape-rendering="auto" stroke-opacity="1" fill="black" stroke-dasharray="none" font-weight="normal" stroke-width="1" height="280" font-family="'Dialog'" font-style="normal" stroke-linejoin="miter" font-size="12px" stroke-dashoffset="0" image-rendering="auto">
  <!--Generated by ySVG 2.6-->
  <defs id="genericDefs"/>
  <g>
    <defs id="defs1">
      <linearGradient x1="500" gradientUnits="userSpaceOnUse" x2="580" y1="190" y2="230" id="linearGradient1" spreadMethod="reflect">
        <stop stop-opacity="1" stop-color="rgb(232,238,247)" offset="0%"/>
        <stop stop-opacity="1" stop-color="rgb(183,201,227)" offset="100%"/>
      </linearGradient>
      <linearGradient x1="380" gradientUnits="userSpaceOnUse" x2="460" y1="280" y2="320" id="linearGradient2" spreadMethod="reflect">
        <stop stop-opacity="1" stop-color="rgb(232,238,247)" offset="0%"/>
        <stop stop-opacity="1" stop-color="rgb(183,201,227)" offset="100%"/>
      </linearGradient>
      <linearGradient x1="620" gradientUnits="userSpaceOnUse" x2="700" y1="280" y2="320" id="linearGradient3" spreadMethod="reflect">
        <stop stop-opacity="1" stop-color="rgb(232,238,247)" offset="0%"/>
        <stop stop-opacity="1" stop-color="rgb(183,201,227)" offset="100%"/>
      </linearGradient>
      <linearGradient x1="380" gradientUnits="userSpaceOnUse" x2="460" y1="400" y2="440" id="linearGradient4" spreadMethod="reflect">
        <stop stop-opacity="1" stop-color="rgb(232,238,247)" offset="0%"/>
        <stop stop-opacity="1" stop-color="rgb(183,201,227)" offset="100%"/>
      </linearGradient>
      <clipPath clipPathUnits="userSpaceOnUse" id="clipPath1">
        <path d="M0 0 L350 0 L350 280 L0 280 L0 0 Z"/>
      </clipPath>
      <clipPath clipPathUnits="userSpaceOnUse" id="clipPath2">
        <path d="M365 175 L715 175 L715 455 L365 455 L365 175 Z"/>
      </clipPath>
    </defs>
    <g fill="url(#linearGradient1)" text-rendering="geometricPrecision" shape-rendering="geometricPrecision" transform="matrix(1,0,0,1,-365,-175)" stroke="url(#linearGradient1)">
      <path d="M500 190 L580 190 L580 230 L500 230 Z" stroke="none" clip-path="url(#clipPath2)"/>
    </g>
    <g stroke-linecap="butt" transform="matrix(1,0,0,1,-365,-175)" text-rendering="geometricPrecision" shape-rendering="geometricPrecision" stroke-dasharray="12,4" stroke-width="2" stroke-miterlimit="1.45">
      <path fill="none" d="M500 190 L580 190 L580 230 L500 230 Z" clip-path="url(#clipPath2)"/>
    </g>
    <g stroke-linecap="butt" transform="matrix(1,0,0,1,-365,-175)" text-rendering="geometricPrecision" font-family="sans-serif" shape-rendering="geometricPrecision" font-weight="bold" stroke-miterlimit="1.45">
      <text x="506.0039" xml:space="preserve" y="214.7139" clip-path="url(#clipPath2)" stroke="none">PrintEdition</text>
    </g>
    <g fill="url(#linearGradient2)" text-rendering="geometricPrecision" shape-rendering="geometricPrecision" transform="matrix(1,0,0,1,-365,-175)" stroke="url(#linearGradient2)">
      <path d="M380 280 L460 280 L460 320 L380 320 Z" stroke="none" clip-path="url(#clipPath2)"/>
    </g>
    <g text-rendering="geometricPrecision" stroke-miterlimit="1.45" stroke-width="2" shape-rendering="geometricPrecision" transform="matrix(1,0,0,1,-365,-175)" stroke-linecap="butt">
      <path fill="none" d="M380 280 L460 280 L460 320 L380 320 Z" clip-path="url(#clipPath2)"/>
      <text x="405" y="304.7139" clip-path="url(#clipPath2)" font-family="sans-serif" stroke="none" font-weight="bold" stroke-width="1" xml:space="preserve">Book</text>
    </g>
    <g fill="url(#linearGradient3)" text-rendering="geometricPrecision" shape-rendering="geometricPrecision" transform="matrix(1,0,0,1,-365,-175)" stroke="url(#linearGradient3)">
      <path d="M620 280 L700 280 L700 320 L620 320 Z" stroke="none" clip-path="url(#clipPath2)"/>
    </g>
    <g text-rendering="geometricPrecision" stroke-miterlimit="1.45" stroke-width="2" shape-rendering="geometricPrecision" transform="matrix(1,0,0,1,-365,-175)" stroke-linecap="butt">
      <path fill="none" d="M620 280 L700 280 L700 320 L620 320 Z" clip-path="url(#clipPath2)"/>
      <text x="638.3291" y="304.7139" clip-path="url(#clipPath2)" font-family="sans-serif" stroke="none" font-weight="bold" stroke-width="1" xml:space="preserve">Journal</text>
    </g>
    <g fill="url(#linearGradient4)" text-rendering="geometricPrecision" shape-rendering="geometricPrecision" transform="matrix(1,0,0,1,-365,-175)" stroke="url(#linearGradient4)">
      <path d="M380 400 L460 400 L460 440 L380 440 Z" stroke="none" clip-path="url(#clipPath2)"/>
    </g>
    <g text-rendering="geometricPrecision" stroke-miterlimit="1.45" stroke-width="2" shape-rendering="geometricPrecision" transform="matrix(1,0,0,1,-365,-175)" stroke-linecap="butt">
      <path fill="none" d="M380 400 L460 400 L460 440 L380 440 Z" clip-path="url(#clipPath2)"/>
      <text x="393.3311" y="424.7139" clip-path="url(#clipPath2)" font-family="sans-serif" stroke="none" font-weight="bold" stroke-width="1" xml:space="preserve">Textbook</text>
    </g>
    <g text-rendering="geometricPrecision" stroke-miterlimit="1.45" shape-rendering="geometricPrecision" transform="matrix(1,0,0,1,-365,-175)" stroke-linecap="butt">
      <path fill="none" d="M500.0098 210 L420 210 L420 272.0049" clip-path="url(#clipPath2)"/>
    </g>
    <g text-rendering="geometricPrecision" stroke-miterlimit="1.45" shape-rendering="geometricPrecision" transform="matrix(1,0,0,1,-365,-175)" stroke-linecap="butt">
      <path d="M420 280.0049 L425 268.0049 L420 271.0049 L415 268.0049 Z" stroke="none" clip-path="url(#clipPath2)"/>
      <path fill="none" d="M579.9902 210 L660 210 L660 272.0049" clip-path="url(#clipPath2)"/>
      <path d="M660 280.0049 L665 268.0049 L660 271.0049 L655 268.0049 Z" clip-path="url(#clipPath2)" stroke="none"/>
      <path fill="none" d="M420 320.0098 L420 392.0312" clip-path="url(#clipPath2)"/>
      <path d="M420 400.0312 L425 388.0312 L420 391.0312 L415 388.0312 Z" clip-path="url(#clipPath2)" stroke="none"/>
    </g>
  </g>
</svg>
